<?xml version="1.0" encoding="iso-8859-1"?>
<!-- Generator: Adobe Illustrator 19.0.0, SVG Export Plug-In . SVG Version: 6.00 Build 0)  -->
<svg version="1.1" id="Capa_1" xmlns="http://www.w3.org/2000/svg" xmlns:xlink="http://www.w3.org/1999/xlink" x="0px" y="0px"
	 viewBox="0 0 64 48" style="enable-background:new 0 0 64 64;" xml:space="preserve">
<g id="Queen_1_">
	<path id="Queen" d="M60.049,4C57.816,4,56,5.816,56,8.048c0,1.183,0.519,2.239,1.331,2.979L40.691,24.685L33.094,7.943
		c1.724-0.464,3.004-2.026,3.004-3.895C36.098,1.816,34.281,0,32.049,0S28,1.816,28,4.048c0,1.869,1.28,3.43,3.004,3.895
		l-7.598,16.742L6.767,11.028c0.812-0.741,1.331-1.797,1.331-2.979C8.098,5.816,6.281,4,4.049,4S0,5.816,0,8.048
		s1.816,4.048,4.049,4.048c0.362,0,0.707-0.063,1.041-0.153c0.007,0.03,0.004,0.061,0.014,0.092l9.528,29.091h-1.582
		c-0.509,0-0.921,0.413-0.921,0.921v4c0,0.509,0.412,0.921,0.921,0.921h38c0.509,0,0.921-0.413,0.921-0.921v-4
		c0-0.509-0.412-0.921-0.921-0.921h-1.582l9.528-29.091c0.01-0.03,0.007-0.061,0.014-0.092c0.334,0.09,0.679,0.153,1.041,0.153
		c2.232,0,4.049-1.816,4.049-4.048S62.281,4,60.049,4z M2.098,8.048c0-1.076,0.875-1.952,1.951-1.952C5.125,6.097,6,6.972,6,8.048
		C6,9.125,5.125,10,4.049,10C2.973,10,2.098,9.125,2.098,8.048z M50.128,45.127H13.97V42.97h36.158V45.127z M30.098,4.048
		c0-1.076,0.875-1.952,1.951-1.952C33.125,2.097,34,2.972,34,4.048C34,5.124,33.125,6,32.049,6C30.973,6,30.098,5.124,30.098,4.048z
		 M47.396,41.053H16.701L8.058,14.663l15.087,12.383c0.24,0.197,0.558,0.271,0.857,0.2c0.302-0.07,0.553-0.276,0.681-0.558
		l7.366-16.231l7.366,16.231c0.128,0.282,0.379,0.488,0.681,0.558c0.299,0.072,0.617-0.003,0.857-0.2L56.04,14.663L47.396,41.053z
		 M60.049,10c-1.076,0-1.951-0.875-1.951-1.952c0-1.076,0.875-1.952,1.951-1.952C61.125,6.097,62,6.972,62,8.048
		C62,9.125,61.125,10,60.049,10z" style="fill: white;"/>
</g>
</svg>
